<?xml version="1.0" encoding="utf-8"?>
<!-- Generator: Adobe Illustrator 25.4.1, SVG Export Plug-In . SVG Version: 6.00 Build 0)  -->
<svg version="1.1" id="Layer_1" xmlns="http://www.w3.org/2000/svg" xmlns:xlink="http://www.w3.org/1999/xlink" x="0px" y="0px"
	 viewBox="0 0 74.9 74.9" style="enable-background:new 0 0 74.9 74.9;" xml:space="preserve">
<style type="text/css">
	.st0{fill:#F8F7FC;}
	.st1{fill:#213458;}
	.st2{fill:#5588E6;stroke:#213458;stroke-width:3;stroke-linecap:round;stroke-linejoin:round;}
	.st3{fill:none;stroke:#5588E6;stroke-width:2.8;stroke-linecap:round;stroke-linejoin:round;}
</style>
<rect x="15.6" y="1.4" class="st0" width="57.8" height="57.8"/>
<path class="st1" d="M73.5,60.6H15.6c-0.8,0-1.4-0.6-1.4-1.4l0,0V1.4c0-0.8,0.6-1.4,1.4-1.4h57.8c0.8,0,1.4,0.6,1.4,1.4c0,0,0,0,0,0
	v57.8C74.9,60,74.2,60.6,73.5,60.6C73.5,60.6,73.5,60.6,73.5,60.6z M17,57.8h55v-55H17L17,57.8z"/>
<path class="st0" d="M1.4,73.5l0.1-57.9L15.6,1.4c0,0-0.1,57.9,0,57.9L1.4,73.5"/>
<path class="st1" d="M1.4,74.9c-0.8,0-1.4-0.6-1.4-1.4c0,0,0,0,0,0l0.1-57.9c0-0.4,0.1-0.7,0.4-1L14.6,0.4c0.5-0.5,1.4-0.5,2,0
	C16.9,0.7,17,1,17,1.4c0,19.5-0.1,56.4,0,57.8c0,0.4-0.1,0.8-0.4,1.1L2.4,74.4C2.1,74.7,1.8,74.9,1.4,74.9z M2.9,16.1l-0.1,54
	l11.4-11.4c0-0.5,0-1.1,0-1.9l0-6.6c0-5.4,0-12.7,0-19.9l0-25.5L2.9,16.1z"/>
<path class="st2" d="M30.2,15h12.4c11.4,0,18.1,6.6,18.1,15.9V31c0,9.3-6.7,16.1-18.2,16.1H30.2V15z M39.1,22.8v16.4h3.6
	c5.4,0,8.9-2.9,8.9-8.1V31c0-5.1-3.5-8.2-8.9-8.2L39.1,22.8z"/>
<polygon class="st0" points="1.4,73.5 59.6,73.5 73.5,59.2 15.9,59 "/>
<path class="st1" d="M59.6,74.9H1.4c-0.8,0-1.4-0.6-1.4-1.4c0-0.4,0.1-0.7,0.4-1L14.9,58c0.3-0.3,0.6-0.4,1-0.4l57.6,0.2
	c0.8,0,1.4,0.6,1.4,1.4c0,0.4-0.1,0.7-0.4,1L60.6,74.4C60.4,74.7,60,74.9,59.6,74.9z M4.8,72.1H59l11.1-11.5l-53.7-0.2L4.8,72.1z"/>
<path class="st3" d="M73.5,59.3"/>
</svg>
